<svg version="1.2" baseProfile="tiny-ps" xmlns="http://www.w3.org/2000/svg" viewBox="0 0 1548 258" width="1548" height="258">
	<title>logo-black-svg</title>
	<style>
		tspan { white-space:pre }
		.shp0 { fill: #f18524 } 
		.shp1 { fill: #ffffff } 
	</style>
	<g id="Layer">
		<path id="Layer" fill-rule="evenodd" class="shp0" d="M521.7 8C537 8 549.1 11.3 557.9 18C566.8 24.7 571.2 34.7 571.2 48.2C571.2 61.7 566.8 71.8 557.9 78.5C549 85.2 537 88.6 521.7 88.6L493.2 88.6L493.2 158.5L477.9 158.5L477.9 8L521.7 8ZM493.3 74.6L518 74.6C524.8 74.6 530.6 73.9 535.3 72.5C540 71.1 543.8 69.2 546.7 66.9C549.5 64.6 551.6 61.8 552.9 58.6C554.2 55.4 554.8 52 554.8 48.3C554.8 44.8 554.2 41.4 552.9 38.2C551.6 35 549.6 32.2 546.7 29.8C543.9 27.4 540.1 25.5 535.3 24.2C530.5 22.9 524.8 22.2 518 22.2L493.3 22.2L493.3 74.6Z" />
		<path id="Layer" fill-rule="evenodd" class="shp0" d="M615.3 158.6L600 158.6L600 8L646.3 8C661.6 8 673.7 11.3 682.5 18C691.4 24.7 695.8 34.7 695.8 48.2C695.8 58.7 692.5 67.5 685.9 74.7C679.3 81.9 669.8 86 657.3 87.1L700.7 158.5L682 158.5L640.8 88.6L615.3 88.6L615.3 158.6ZM615.3 74.6L642.5 74.6C649.3 74.6 655.1 73.9 659.8 72.5C664.5 71.1 668.3 69.2 671.2 66.9C674 64.6 676.1 61.8 677.4 58.6C678.7 55.4 679.3 52 679.3 48.3C679.3 44.8 678.7 41.4 677.4 38.2C676.1 35 674.1 32.2 671.2 29.8C668.4 27.4 664.6 25.5 659.8 24.2C655.1 22.9 649.3 22.2 642.5 22.2L615.3 22.2L615.3 74.6Z" />
		<path id="Layer" fill-rule="evenodd" class="shp0" d="M872.7 83.3C872.7 94.8 870.7 105.3 866.7 115C862.7 124.6 857.2 133 850.2 140C843.2 147 834.9 152.5 825.3 156.5C815.7 160.5 805.3 162.5 794.2 162.5C783 162.5 772.6 160.5 763.1 156.5C753.5 152.5 745.2 147 738.2 140C731.2 133 725.7 124.7 721.7 115C717.7 105.4 715.7 94.8 715.7 83.3C715.7 71.8 717.7 61.3 721.7 51.6C725.7 42 731.2 33.6 738.2 26.6C745.2 19.6 753.5 14.1 763.1 10.1C772.7 6.1 783 4.1 794.2 4.1C805.4 4.1 815.8 6.1 825.3 10.1C834.9 14.1 843.2 19.6 850.2 26.6C857.2 33.6 862.7 41.9 866.7 51.6C870.8 61.3 872.7 71.8 872.7 83.3ZM856.2 83.3C856.2 74.7 854.8 66.4 851.9 58.5C849.1 50.6 845 43.7 839.7 37.8C834.4 31.8 827.9 27.1 820.2 23.6C812.5 20.1 803.9 18.3 794.3 18.3C784.7 18.3 776 20.1 768.4 23.6C760.7 27.1 754.3 31.9 748.9 37.8C743.6 43.8 739.5 50.7 736.7 58.5C733.9 66.4 732.4 74.6 732.4 83.3C732.4 91.9 733.8 100.2 736.7 108.1C739.5 116 743.6 122.9 748.9 128.8C754.2 134.8 760.7 139.5 768.4 143C776.1 146.5 784.7 148.3 794.3 148.3C803.9 148.3 812.6 146.5 820.2 143C827.9 139.5 834.3 134.7 839.7 128.8C845 122.8 849.1 115.9 851.9 108.1C854.7 100.2 856.2 92 856.2 83.3Z" />
		<path id="Layer" fill-rule="evenodd" class="shp1" d="M890.2 128L890.2 102.7L950.8 8L979.7 8L979.7 105L1001.6 105L1001.6 128L979.7 128L979.7 158.6L954.2 158.6L954.2 128L890.2 128ZM954.2 44.2L953.8 44.2L916.1 105L954.2 105L954.2 44.2Z" />
		<path id="Layer" class="shp1" d="M1056.4 32.3L1010.3 32.3L1010.3 8L1129.4 8L1129.4 32.2L1083.3 32.2L1083.3 158.5L1056.5 158.5L1056.5 32.3L1056.4 32.3Z" />
		<path id="Layer" class="shp1" d="M1147.6 8L1247.3 8L1247.3 32.2L1174.4 32.2L1174.4 69.2L1243.5 69.2L1243.5 93.4L1174.4 93.4L1174.4 134.2L1251.1 134.2L1251.1 158.4L1147.6 158.4L1147.6 8Z" />
		<path id="Layer" class="shp1" d="M1380.9 43.3C1369.8 31.6 1359.6 28.4 1349.2 28.4C1318.2 28.4 1297.5 52.2 1297.5 82.2C1297.5 114.3 1318.1 138.1 1349.2 138.1C1361.3 138.1 1373 132.6 1383 119.8L1405.1 135.5C1391.5 154.2 1371.1 162.3 1349 162.3C1302.7 162.3 1269.5 130.8 1269.5 83.8C1269.5 35.5 1302.7 4.1 1349 4.1C1369.4 4.1 1386.8 10.7 1401.7 27.9L1380.9 43.3Z" />
		<path id="Layer" class="shp1" d="M1423.2 8L1450 8L1450 68L1520.4 68L1520.4 8L1547.2 8L1547.2 158.5L1520.4 158.5L1520.4 92.2L1450 92.2L1450 158.5L1423.2 158.5L1423.2 8Z" />
		<g id="Layer">
			<path id="Layer" fill-rule="evenodd" class="shp1" d="M492.2 204C518.4 204 519.5 225.5 519.5 229.2C519.5 232.9 518.4 254.4 492.2 254.4L476.6 254.4L476.6 204L492.2 204ZM491 250.2C504.4 250.2 514.8 243.7 514.8 229.3C514.8 214.9 504.4 208.4 491 208.4L481.3 208.4L481.3 250.2L491 250.2Z" />
			<path id="Layer" class="shp1" d="M537.1 204L541.8 204L541.8 254.4L537.1 254.4L537.1 204Z" />
			<path id="Layer" class="shp1" d="M604.4 251.2C598.6 254.5 592.1 255.8 585.6 255.8C570.2 255.8 559.5 244.7 559.5 229.3C559.5 213.9 570.2 202.8 585.6 202.8C593.1 202.8 599.1 205.1 603.8 209.8L600.4 213.4C597.3 209.7 591.1 207.1 585.7 207.1C572.5 207.1 564.3 216.8 564.3 229.3C564.3 241.8 572.5 251.5 585.7 251.5C591.1 251.5 596 250.8 599.8 248.5L599.8 231.5L587.7 231.5L587.7 227.2L604.5 227.2L604.5 251.2L604.4 251.2Z" />
			<path id="Layer" class="shp1" d="M625.3 204L630 204L630 254.4L625.3 254.4L625.3 204Z" />
			<path id="Layer" class="shp1" d="M662.2 208.3L645 208.3L645 204L684.2 204L684.2 208.3L667 208.3L667 254.5L662.3 254.5L662.3 208.3L662.2 208.3Z" />
			<path id="Layer" fill-rule="evenodd" class="shp1" d="M709.6 204L714.4 204L735.6 254.4L730.3 254.4L724.8 241L698.1 241L692.4 254.4L687.5 254.4L709.6 204ZM711.8 209.1L700 236.7L723.2 236.7L711.8 209.1Z" />
			<path id="Layer" class="shp1" d="M750.1 204L754.8 204L754.8 250.2L778.3 250.2L778.3 254.5L750.1 254.5L750.1 204Z" />
			<path id="Layer" class="shp1" d="M829.7 208.3L812.5 208.3L812.5 204L851.7 204L851.7 208.3L834.5 208.3L834.5 254.5L829.8 254.5L829.8 208.3L829.7 208.3Z" />
			<path id="Layer" fill-rule="evenodd" class="shp1" d="M866.5 204L879.8 204C883.8 204 897.8 204 897.8 217.3C897.8 226.9 890.5 229.6 884.9 230.3L899.6 254.5L894.3 254.5L880 230.5L871.2 230.5L871.2 254.4L866.5 254.4L866.5 204ZM871.2 226.2L881.2 226.2C891.1 226.2 893 220.7 893 217.2C893 213.7 891.1 208.2 881.2 208.2L871.2 208.2L871.2 226.2Z" />
			<path id="Layer" fill-rule="evenodd" class="shp1" d="M931.3 204L936.1 204L957.3 254.4L952 254.4L946.5 241L919.8 241L914.1 254.4L909.2 254.4L931.3 204ZM933.5 209.1L921.7 236.7L944.9 236.7L933.5 209.1Z" />
			<path id="Layer" class="shp1" d="M971.8 204L977.9 204L1008.6 248.2L1008.7 248.2L1008.7 204L1013.4 204L1013.4 254.4L1007.3 254.4L976.6 210.2L976.5 210.2L976.5 254.4L971.8 254.4L971.8 204Z" />
			<path id="Layer" class="shp1" d="M1035.7 245.1C1038.2 249.3 1042.3 251.4 1047.2 251.4C1053.5 251.4 1058.5 247.6 1058.5 241.5C1058.5 227.4 1032.5 235.7 1032.5 216.5C1032.5 207.5 1040.2 202.7 1048.7 202.7C1054.2 202.7 1059 204.6 1062.5 209L1058.4 211.9C1056 208.6 1052.9 206.9 1048.6 206.9C1042.5 206.9 1037.3 210 1037.3 216.4C1037.3 231.6 1063.3 222.5 1063.3 241.4C1063.3 250.5 1055.8 255.6 1047.6 255.6C1041 255.6 1035.1 253.5 1031.2 248L1035.7 245.1Z" />
			<path id="Layer" class="shp1" d="M1081.1 204L1111.3 204L1111.3 208.3L1085.8 208.3L1085.8 226.3L1109.5 226.3L1109.5 230.6L1085.8 230.6L1085.8 254.5L1081.1 254.5L1081.1 204Z" />
			<path id="Layer" fill-rule="evenodd" class="shp1" d="M1150.6 202.7C1166 202.7 1176.7 213.8 1176.7 229.2C1176.7 244.6 1166 255.7 1150.6 255.7C1135.2 255.7 1124.5 244.6 1124.5 229.2C1124.5 213.8 1135.2 202.7 1150.6 202.7ZM1150.6 251.4C1163.8 251.4 1172 241.7 1172 229.2C1172 216.7 1163.8 207 1150.6 207C1137.4 207 1129.2 216.7 1129.2 229.2C1129.3 241.8 1137.4 251.4 1150.6 251.4Z" />
			<path id="Layer" fill-rule="evenodd" class="shp1" d="M1207.7 204C1211.7 204 1225.7 204 1225.7 217.3C1225.7 226.9 1218.4 229.6 1212.8 230.3L1227.5 254.5L1222.2 254.5L1208 230.6L1199.2 230.6L1199.2 254.5L1194.5 254.5L1194.5 204L1207.7 204ZM1199.1 226.2L1209.1 226.2C1219 226.2 1220.9 220.7 1220.9 217.2C1220.9 213.7 1219 208.2 1209.1 208.2L1199.1 208.2L1199.1 226.2Z" />
			<path id="Layer" class="shp1" d="M1243.2 204L1250.3 204L1268.7 246.3L1287.1 204L1293.8 204L1293.8 254.4L1289.1 254.4L1289.1 210L1289 210L1269.8 254.5L1267.7 254.5L1248.2 210L1248.1 210L1248.1 254.5L1243.4 254.5L1243.4 204L1243.2 204Z" />
			<path id="Layer" fill-rule="evenodd" class="shp1" d="M1329.7 204L1334.5 204L1355.7 254.4L1350.4 254.4L1345 241L1318.3 241L1312.6 254.4L1307.7 254.4L1329.7 204ZM1331.9 209.1L1320.1 236.7L1343.3 236.7L1331.9 209.1Z" />
			<path id="Layer" class="shp1" d="M1376.5 208.3L1359.3 208.3L1359.3 204L1398.5 204L1398.5 208.3L1381.3 208.3L1381.3 254.5L1376.6 254.5L1376.6 208.3L1376.5 208.3Z" />
			<path id="Layer" class="shp1" d="M1413.3 204L1418 204L1418 254.4L1413.3 254.4L1413.3 204Z" />
			<path id="Layer" fill-rule="evenodd" class="shp1" d="M1461.8 202.7C1477.2 202.7 1487.9 213.8 1487.9 229.2C1487.9 244.6 1477.2 255.7 1461.8 255.7C1446.4 255.7 1435.7 244.6 1435.7 229.2C1435.7 213.8 1446.4 202.7 1461.8 202.7ZM1461.8 251.4C1475 251.4 1483.2 241.7 1483.2 229.2C1483.2 216.7 1475 207 1461.8 207C1448.6 207 1440.4 216.7 1440.4 229.2C1440.4 241.8 1448.6 251.4 1461.8 251.4Z" />
			<path id="Layer" class="shp1" d="M1505.5 204L1511.6 204L1542.3 248.2L1542.4 248.2L1542.4 204L1547.1 204L1547.1 254.4L1541 254.4L1510.3 210.2L1510.2 210.2L1510.2 254.4L1505.5 254.4L1505.5 204Z" />
		</g>
		<path id="Layer" class="shp1" d="M233 47.3L233 34.6L253.6 34.6L253.6 49.5C247.6 48.1 241.4 47.3 234.9 47.3C234.3 47.3 233.6 47.3 233 47.3Z" />
		<path id="Layer" fill-rule="evenodd" class="shp1" d="M103.3 67.4L106.9 71.9C103.1 77.7 103.4 77.2 99.7 83L94.3 81.3C90.6 84.3 89.3 85.4 85.6 88.4L86 94.2C79.7 96.6 80.2 96.4 73.9 98.8L70.5 94.1C65.8 94.3 64.1 94.4 59.4 94.6L56.4 99.6C50 97.7 50.4 97.9 44 96L43.9 90.1C40 87.4 38.6 86.4 34.7 83.7L29.5 85.9C25.3 80.4 25.6 80.9 21.5 75.4L24.8 70.6C23.2 66 22.6 64.4 21 59.8L15.5 58.4C15.2 51.5 15.3 52 15 45.1L20.4 43.2C21.7 38.4 22.1 36.8 23.4 32.1L19.8 27.6C23.6 21.8 23.3 22.3 27 16.5L32.4 18.2C36.1 15.2 37.4 14.1 41.1 11.1L40.7 5.3C47 2.9 46.5 3.1 52.8 0.8L56.2 5.5C60.9 5.3 62.6 5.2 67.3 5L70.3 0C76.7 1.9 76.3 1.7 82.7 3.6L82.8 9.5C86.7 12.2 88.1 13.2 92 15.9L97.3 13.7C101.5 19.2 101.2 18.7 105.3 24.2L102 29C103.6 33.6 104.2 35.2 105.8 39.8L111.3 41.2C111.6 48.1 111.5 47.6 111.8 54.5L106.4 56.4C105.1 61.1 104.7 62.7 103.3 67.4ZM96.3 48.4C95.6 29.5 80.3 14.9 62.1 15.6C44 16.4 29.8 32.2 30.5 51.1C31.2 70 46.5 84.7 64.7 83.9C82.9 83.2 97.1 67.3 96.3 48.4Z" />
		<path id="Layer" fill-rule="evenodd" class="shp1" d="M53.8 120.4C53.6 124.2 53.6 123.9 53.5 127.8L50.4 128.6C49.5 131.2 49.2 132 48.3 134.6L50.1 137.3C47.8 140.3 48 140.1 45.7 143.1L42.8 141.9C40.6 143.4 39.9 143.9 37.7 145.4L37.7 148.7C34.1 149.7 34.4 149.7 30.8 150.7L29.1 147.9C26.4 147.7 25.5 147.7 22.9 147.6L21 150.2C17.5 148.8 17.8 148.9 14.3 147.6L14.5 144.3C12.5 142.6 11.8 142 9.7 140.3L6.7 141.3C4.6 138.1 4.8 138.3 2.7 135.1L4.7 132.6C4 129.9 3.7 129 3 126.4L0 125.4C0.2 121.6 0.2 121.9 0.3 118L3.4 117C4.3 114.4 4.6 113.6 5.5 111L3.7 108.3C6 105.3 5.8 105.5 8.1 102.5L11 103.7C13.2 102.2 13.9 101.7 16.1 100.2L16.1 96.9C19.7 95.9 19.4 95.9 23 94.9L24.7 97.7C27.4 97.9 28.3 97.9 30.9 98L32.8 95.4C36.3 96.8 36 96.7 39.5 98L39.3 101.3C41.3 103 42 103.6 44.1 105.3L47.1 104.3C49.2 107.5 49 107.3 51.1 110.5L49.1 113C49.8 115.7 50.1 116.6 50.8 119.2L53.8 120.4ZM27.6 103.9C17.4 103.4 8.9 111.6 8.5 122.1C8.1 132.5 16 141.4 26.1 141.8C36.3 142.3 44.8 134.1 45.2 123.6C45.6 113.1 37.7 104.3 27.6 103.9Z" />
		<g id="Layer">
			<path id="Layer" class="shp1" d="M223.3 18L210.8 -0.2C195.7 4.7 196.9 4.3 181.8 9.2L182.4 31.3C173.4 37.9 170.2 40.2 161.2 46.7L140.4 39.3C131.1 52.1 131.8 51.2 122.5 64L136 81.5C132.5 92.1 131.3 95.8 127.9 106.5L106.7 112.8C106.7 128.7 106.7 127.5 106.7 143.3L126.3 149.1L126.3 140.5C126.3 132.7 132.6 126.4 140.4 126.4L155.9 126.4C156.8 83.4 191.3 48.6 234.3 47.4L234.3 18L223.3 18Z" />
			<path id="Layer" class="shp1" d="M174.6 188.9L140.2 188.9C135.6 188.9 131.6 186.7 129 183.4L122.3 192.1C131.6 204.9 130.9 204 140.2 216.8L161 209.4C170 216 173.2 218.3 182.2 224.8L181.6 246.9C196.7 251.8 195.5 251.4 210.6 256.3L223.1 238.1L233.9 238.1L233.9 208.8C213.6 208.2 195.1 200.1 181.2 187.2C179.4 188.3 177 188.9 174.6 188.9Z" />
		</g>
		<path id="Layer" class="shp0" d="M297.1 132.6C296.2 132.3 295.3 132.1 294.4 132.1L260 132.1C259 132.1 258.1 132.3 257.3 132.6L242 117.3C242.5 116.2 242.8 115 242.8 113.7L242.8 79.3C242.8 74.7 239.1 71 234.5 71L200.2 71C195.6 71 191.9 74.7 191.9 79.3L191.9 113.6C191.9 114.9 192.2 116.1 192.7 117.2L177.3 132.6C176.4 132.3 175.5 132.1 174.6 132.1L140.3 132.1C135.7 132.1 132 135.8 132 140.4L132 174.7C132 179.3 135.7 183 140.3 183L174.6 183C179.2 183 182.9 179.3 182.9 174.7L182.9 140.4C182.9 139.3 182.7 138.2 182.2 137.2L197.8 121.6C198.5 121.8 199.3 121.9 200.1 121.9L234.4 121.9C235.2 121.9 236 121.8 236.7 121.6L252.3 137.2C251.9 138.2 251.6 139.3 251.6 140.4L251.6 174.7C251.6 179.3 255.3 183 259.9 183L294.2 183C298.8 183 302.5 179.3 302.5 174.7L302.5 140.4C302.5 139.3 302.3 138.2 301.8 137.2L317.4 121.6C318.1 121.8 318.9 121.9 319.7 121.9L354 121.9C358.6 121.9 362.3 118.2 362.3 113.6L362.3 79.3C362.3 74.7 358.6 71 354 71L319.7 71C315.1 71 311.4 74.7 311.4 79.3L311.4 113.6C311.4 114.9 311.7 116.1 312.2 117.2L297.1 132.6Z" />
		<path id="Layer" class="shp1" d="M314.9 180.6L309.8 180.6C309.1 180.6 308.6 181.2 308.6 181.8L308.6 186.9C308.6 187.6 309.2 188.1 309.8 188.1L314.9 188.1C315.6 188.1 316.1 187.5 316.1 186.9L316.1 181.8C316.1 181.1 315.6 180.6 314.9 180.6Z" />
		<path id="Layer" class="shp1" d="M312.4 235L304.7 235C303.7 235 302.8 235.8 302.8 236.9L302.8 244.6C302.8 245.6 303.6 246.5 304.7 246.5L312.4 246.5C313.4 246.5 314.3 245.7 314.3 244.6L314.3 236.9C314.2 235.8 313.4 235 312.4 235Z" />
		<path id="Layer" class="shp1" d="M324.6 140.9L324.6 134.8C324.6 134 323.9 133.3 323.1 133.3L317 133.3C316.2 133.3 315.5 134 315.5 134.8L315.5 140.9C315.5 141.7 316.2 142.4 317 142.4L323.1 142.4C323.9 142.4 324.6 141.7 324.6 140.9Z" />
		<path id="Layer" class="shp1" d="M356.1 130.5L356.1 140.5C356.1 141.8 357.2 142.9 358.5 142.9L368.5 142.9C369.8 142.9 370.9 141.8 370.9 140.5L370.9 130.5C370.9 129.2 369.8 128.1 368.5 128.1L358.5 128.1C357.1 128.1 356.1 129.1 356.1 130.5Z" />
		<path id="Layer" class="shp1" d="M250.1 201.8L250.1 209.8C250.1 210.9 251 211.7 252 211.7L260 211.7C261.1 211.7 261.9 210.8 261.9 209.8L261.9 201.8C261.9 200.7 261 199.9 260 199.9L252 199.9C251 199.9 250.1 200.8 250.1 201.8Z" />
		<path id="Layer" class="shp1" d="M353.4 148.9L329.4 148.9C326.2 148.9 323.6 151.5 323.6 154.7L323.6 178.7C323.6 181.9 326.2 184.5 329.4 184.5L353.4 184.5C356.6 184.5 359.2 181.9 359.2 178.7L359.2 154.7C359.2 151.5 356.6 148.9 353.4 148.9Z" />
		<path id="Layer" class="shp1" d="M305.3 195.9L285.3 195.9C282.6 195.9 280.4 198.1 280.4 200.8L280.4 220.8C280.4 223.5 282.6 225.7 285.3 225.7L305.3 225.7C308 225.7 310.2 223.5 310.2 220.8L310.2 200.8C310.1 198 308 195.9 305.3 195.9Z" />
		<path id="Layer" class="shp1" d="M381.3 98L370.7 98C369.3 98 368.1 99.2 368.1 100.6L368.1 111.2C368.1 112.6 369.3 113.8 370.7 113.8L381.3 113.8C382.7 113.8 383.9 112.6 383.9 111.2L383.9 100.6C383.9 99.1 382.7 98 381.3 98Z" />
		<path id="Layer" class="shp1" d="M374.3 66.7C375.2 66.7 376 65.9 376 65L376 58.1C376 57.2 375.2 56.4 374.3 56.4L367.4 56.4C366.5 56.4 365.7 57.2 365.7 58.1L365.7 65C365.7 65.9 366.5 66.7 367.4 66.7L374.3 66.7Z" />
		<path id="Layer" class="shp1" d="M341.7 195.8L331 195.8C329.6 195.8 328.4 197 328.4 198.4L328.4 209.1C328.4 210.5 329.6 211.7 331 211.7L341.7 211.7C343.1 211.7 344.3 210.5 344.3 209.1L344.3 198.4C344.3 197 343.2 195.8 341.7 195.8Z" />
		<path id="Layer" class="shp1" d="M251.7 237.1L237.8 237.1C235.9 237.1 234.4 238.6 234.4 240.5L234.4 254.4C234.4 256.3 235.9 257.8 237.8 257.8L251.7 257.8C253.6 257.8 255.1 256.3 255.1 254.4L255.1 240.5C255.1 238.6 253.6 237.1 251.7 237.1Z" />
		<path id="Layer" class="shp1" d="M254.8 38.2L260.2 38.2C260.9 38.2 261.5 37.6 261.5 36.9L261.5 31.5C261.5 30.8 260.9 30.2 260.2 30.2L254.8 30.2C254.1 30.2 253.5 30.8 253.5 31.5L253.5 36.9C253.5 37.6 254.1 38.2 254.8 38.2Z" />
		<path id="Layer" class="shp1" d="M324.9 61.6L338.5 61.6C340.3 61.6 341.8 60.1 341.8 58.3L341.8 44.6C341.8 42.8 340.3 41.3 338.5 41.3L324.9 41.3C323.1 41.3 321.6 42.8 321.6 44.6L321.6 58.2C321.6 60.1 323.1 61.6 324.9 61.6Z" />
		<path id="Layer" class="shp1" d="M255.2 67.1L255.2 77.1C255.2 78.4 256.3 79.5 257.6 79.5L267.6 79.5C268.9 79.5 270 78.4 270 77.1L270 67.1C270 65.8 268.9 64.7 267.6 64.7L257.6 64.7C256.3 64.7 255.2 65.8 255.2 67.1Z" />
		<path id="Layer" class="shp1" d="M276.5 53.5L303.3 53.5C306.9 53.5 309.8 50.6 309.8 47L309.8 20.2C309.8 16.6 306.9 13.7 303.3 13.7L276.5 13.7C272.9 13.7 270 16.6 270 20.2L270 47C270 50.6 272.9 53.5 276.5 53.5Z" />
		<path id="Layer" class="shp1" d="M267 95.9L267 115.8C267 118.5 269.2 120.6 271.8 120.6L291.7 120.6C294.4 120.6 296.5 118.4 296.5 115.8L296.5 95.9C296.5 93.2 294.3 91.1 291.7 91.1L271.8 91.1C269.2 91.1 267 93.2 267 95.9Z" />
		<path id="Layer" class="shp1" d="M293 77.7C293.7 77.7 294.2 77.2 294.2 76.5L294.2 71.5C294.2 70.8 293.7 70.3 293 70.3L288 70.3C287.3 70.3 286.8 70.8 286.8 71.5L286.8 76.5C286.8 77.2 287.3 77.7 288 77.7L293 77.7Z" />
	</g>
</svg>