<?xml version="1.0" encoding="utf-8"?>
<!-- Generator: Adobe Illustrator 19.0.0, SVG Export Plug-In . SVG Version: 6.00 Build 0)  -->
<svg version="1.1" id="Camada_1" xmlns="http://www.w3.org/2000/svg" xmlns:xlink="http://www.w3.org/1999/xlink" x="0px" y="0px"
	 viewBox="0 0 1547.1 257.7" style="enable-background:new 0 0 1547.1 257.7;" xml:space="preserve">
<style type="text/css">
	.st0{fill:#F18524;}
	.st1{fill:#484B51;}
</style>
<g>
	<path class="st0" d="M477.9,8h43.8c15.3,0,27.4,3.3,36.2,10c8.9,6.7,13.3,16.7,13.3,30.2c0,13.5-4.4,23.6-13.3,30.3
		c-8.9,6.7-20.9,10.1-36.2,10.1h-28.5v69.9h-15.3V8z M493.3,74.6h24.7c6.8,0,12.6-0.7,17.3-2.1c4.7-1.4,8.5-3.3,11.4-5.6
		c2.8-2.3,4.9-5.1,6.2-8.3c1.3-3.2,1.9-6.6,1.9-10.3c0-3.5-0.6-6.9-1.9-10.1c-1.3-3.2-3.3-6-6.2-8.4c-2.8-2.4-6.6-4.3-11.4-5.6
		c-4.8-1.3-10.5-2-17.3-2h-24.7V74.6z"/>
	<path class="st0" d="M615.3,158.6H600V8h46.3c15.3,0,27.4,3.3,36.2,10c8.9,6.7,13.3,16.7,13.3,30.2c0,10.5-3.3,19.3-9.9,26.5
		c-6.6,7.2-16.1,11.3-28.6,12.4l43.4,71.4H682l-41.2-69.9h-25.5V158.6z M615.3,74.6h27.2c6.8,0,12.6-0.7,17.3-2.1
		c4.7-1.4,8.5-3.3,11.4-5.6c2.8-2.3,4.9-5.1,6.2-8.3c1.3-3.2,1.9-6.6,1.9-10.3c0-3.5-0.6-6.9-1.9-10.1c-1.3-3.2-3.3-6-6.2-8.4
		c-2.8-2.4-6.6-4.3-11.4-5.6c-4.7-1.3-10.5-2-17.3-2h-27.2V74.6z"/>
	<path class="st0" d="M872.7,83.3c0,11.5-2,22-6,31.7c-4,9.6-9.5,18-16.5,25c-7,7-15.3,12.5-24.9,16.5s-20,6-31.1,6
		c-11.2,0-21.6-2-31.1-6c-9.6-4-17.9-9.5-24.9-16.5c-7-7-12.5-15.3-16.5-25c-4-9.6-6-20.2-6-31.7c0-11.5,2-22,6-31.7
		c4-9.6,9.5-18,16.5-25c7-7,15.3-12.5,24.9-16.5c9.6-4,19.9-6,31.1-6c11.2,0,21.6,2,31.1,6c9.6,4,17.9,9.5,24.9,16.5
		c7,7,12.5,15.3,16.5,25C870.8,61.3,872.7,71.8,872.7,83.3z M856.2,83.3c0-8.6-1.4-16.9-4.3-24.8c-2.8-7.9-6.9-14.8-12.2-20.7
		c-5.3-6-11.8-10.7-19.5-14.2c-7.7-3.5-16.3-5.3-25.9-5.3c-9.6,0-18.3,1.8-25.9,5.3c-7.7,3.5-14.1,8.3-19.5,14.2
		c-5.3,6-9.4,12.9-12.2,20.7c-2.8,7.9-4.3,16.1-4.3,24.8c0,8.6,1.4,16.9,4.3,24.8c2.8,7.9,6.9,14.8,12.2,20.7
		c5.3,6,11.8,10.7,19.5,14.2c7.7,3.5,16.3,5.3,25.9,5.3c9.6,0,18.3-1.8,25.9-5.3c7.7-3.5,14.1-8.3,19.5-14.2
		c5.3-6,9.4-12.9,12.2-20.7C854.7,100.2,856.2,92,856.2,83.3z"/>
	<path class="st1" d="M954.2,128h-64v-25.3L950.8,8h28.9V105h21.9v23h-21.9v30.6h-25.5V128z M954.2,44.2h-0.4L916.1,105h38.1V44.2z"
		/>
	<path class="st1" d="M1056.4,32.3h-46.1V8h119.1v24.2h-46.1v126.3h-26.8V32.3z"/>
	<path class="st1" d="M1147.6,8h99.7v24.2h-72.9v37h69.1v24.2h-69.1v40.8h76.7v24.2h-103.5V8z"/>
	<path class="st1" d="M1380.9,43.3c-11.1-11.7-21.3-14.9-31.7-14.9c-31,0-51.7,23.8-51.7,53.8c0,32.1,20.6,55.9,51.7,55.9
		c12.1,0,23.8-5.5,33.8-18.3l22.1,15.7c-13.6,18.7-34,26.8-56.1,26.8c-46.3,0-79.5-31.5-79.5-78.5c0-48.3,33.2-79.7,79.5-79.7
		c20.4,0,37.8,6.6,52.7,23.8L1380.9,43.3z"/>
	<path class="st1" d="M1423.2,8h26.8v60h70.4V8h26.8v150.5h-26.8V92.2h-70.4v66.3h-26.8V8z"/>
	<g>
		<path class="st1" d="M476.6,204h15.6c26.2,0,27.3,21.5,27.3,25.2c0,3.7-1.1,25.2-27.3,25.2h-15.6V204z M481.3,250.2h9.7
			c13.4,0,23.8-6.5,23.8-20.9s-10.4-20.9-23.8-20.9h-9.7V250.2z"/>
		<path class="st1" d="M537.1,204h4.7v50.4h-4.7V204z"/>
		<path class="st1" d="M604.4,251.2c-5.8,3.3-12.3,4.6-18.8,4.6c-15.4,0-26.1-11.1-26.1-26.5s10.7-26.5,26.1-26.5
			c7.5,0,13.5,2.3,18.2,7l-3.4,3.6c-3.1-3.7-9.3-6.3-14.7-6.3c-13.2,0-21.4,9.7-21.4,22.2c0,12.5,8.2,22.2,21.4,22.2
			c5.4,0,10.3-0.7,14.1-3v-17h-12.1v-4.3h16.8V251.2z"/>
		<path class="st1" d="M625.3,204h4.7v50.4h-4.7V204z"/>
		<path class="st1" d="M662.2,208.3h-17.2V204h39.2v4.3h-17.2v46.2h-4.7V208.3z"/>
		<path class="st1" d="M709.6,204h4.8l21.2,50.4h-5.3l-5.5-13.4h-26.7l-5.7,13.4h-4.9L709.6,204z M711.8,209.1l-11.8,27.6h23.2
			L711.8,209.1z"/>
		<path class="st1" d="M750.1,204h4.7v46.2h23.5v4.3h-28.2V204z"/>
		<path class="st1" d="M829.7,208.3h-17.2V204h39.2v4.3h-17.2v46.2h-4.7V208.3z"/>
		<path class="st1" d="M866.5,204h13.3c4,0,18,0,18,13.3c0,9.6-7.3,12.3-12.9,13l14.7,24.2h-5.3L880,230.5h-8.8v23.9h-4.7V204z
			 M871.2,226.2h10c9.9,0,11.8-5.5,11.8-9c0-3.5-1.9-9-11.8-9h-10V226.2z"/>
		<path class="st1" d="M931.3,204h4.8l21.2,50.4h-5.3l-5.5-13.4h-26.7l-5.7,13.4h-4.9L931.3,204z M933.5,209.1l-11.8,27.6h23.2
			L933.5,209.1z"/>
		<path class="st1" d="M971.8,204h6.1l30.7,44.2h0.1V204h4.7v50.4h-6.1l-30.7-44.2h-0.1v44.2h-4.7V204z"/>
		<path class="st1" d="M1035.7,245.1c2.5,4.2,6.6,6.3,11.5,6.3c6.3,0,11.3-3.8,11.3-9.9c0-14.1-26-5.8-26-25c0-9,7.7-13.8,16.2-13.8
			c5.5,0,10.3,1.9,13.8,6.3l-4.1,2.9c-2.4-3.3-5.5-5-9.8-5c-6.1,0-11.3,3.1-11.3,9.5c0,15.2,26,6.1,26,25c0,9.1-7.5,14.2-15.7,14.2
			c-6.6,0-12.5-2.1-16.4-7.6L1035.7,245.1z"/>
		<path class="st1" d="M1081.1,204h30.2v4.3h-25.5v18h23.7v4.3h-23.7v23.9h-4.7V204z"/>
		<path class="st1" d="M1150.6,202.7c15.4,0,26.1,11.1,26.1,26.5s-10.7,26.5-26.1,26.5s-26.1-11.1-26.1-26.5
			S1135.2,202.7,1150.6,202.7z M1150.6,251.4c13.2,0,21.4-9.7,21.4-22.2c0-12.5-8.2-22.2-21.4-22.2c-13.2,0-21.4,9.7-21.4,22.2
			C1129.3,241.8,1137.4,251.4,1150.6,251.4z"/>
		<path class="st1" d="M1194.4,204h13.3c4,0,18,0,18,13.3c0,9.6-7.3,12.3-12.9,13l14.7,24.2h-5.3l-14.2-23.9h-8.8v23.9h-4.7V204z
			 M1199.1,226.2h10c9.9,0,11.8-5.5,11.8-9c0-3.5-1.9-9-11.8-9h-10V226.2z"/>
		<path class="st1" d="M1243.2,204h7.1l18.4,42.3l18.4-42.3h6.7v50.4h-4.7V210h-0.1l-19.2,44.5h-2.1l-19.5-44.5h-0.1v44.5h-4.7V204z
			"/>
		<path class="st1" d="M1329.7,204h4.8l21.2,50.4h-5.3L1345,241h-26.7l-5.7,13.4h-4.9L1329.7,204z M1331.9,209.1l-11.8,27.6h23.2
			L1331.9,209.1z"/>
		<path class="st1" d="M1376.5,208.3h-17.2V204h39.2v4.3h-17.2v46.2h-4.7V208.3z"/>
		<path class="st1" d="M1413.3,204h4.7v50.4h-4.7V204z"/>
		<path class="st1" d="M1461.8,202.7c15.4,0,26.1,11.1,26.1,26.5s-10.7,26.5-26.1,26.5s-26.1-11.1-26.1-26.5
			S1446.4,202.7,1461.8,202.7z M1461.8,251.4c13.2,0,21.4-9.7,21.4-22.2c0-12.5-8.2-22.2-21.4-22.2c-13.2,0-21.4,9.7-21.4,22.2
			C1440.4,241.8,1448.6,251.4,1461.8,251.4z"/>
		<path class="st1" d="M1505.5,204h6.1l30.7,44.2h0.1V204h4.7v50.4h-6.1l-30.7-44.2h-0.1v44.2h-4.7V204z"/>
	</g>
	<path class="st1" d="M233,47.3V34.6h20.6v14.9c-6-1.4-12.2-2.2-18.7-2.2C234.3,47.3,233.6,47.3,233,47.3z"/>
	<path class="st1" d="M106.4,56.4l5.4-1.9c-0.3-6.9-0.2-6.4-0.5-13.3l-5.5-1.4c-1.6-4.6-2.2-6.2-3.8-10.8l3.3-4.8
		c-4.1-5.5-3.8-5-8-10.5L92,15.9c-3.9-2.7-5.3-3.7-9.2-6.4l-0.1-5.9c-6.4-1.9-6-1.7-12.4-3.6l-3,5c-4.7,0.2-6.4,0.3-11.1,0.5
		l-3.4-4.7C46.5,3.1,47,2.9,40.7,5.3l0.4,5.8c-3.7,3-5,4.1-8.7,7.1L27,16.5c-3.7,5.8-3.4,5.3-7.2,11.1l3.6,4.5
		c-1.3,4.7-1.7,6.3-3,11.1l-5.4,1.9c0.3,6.9,0.2,6.4,0.5,13.3l5.5,1.4c1.6,4.6,2.2,6.2,3.8,10.8l-3.3,4.8c4.1,5.5,3.8,5,8,10.5
		l5.2-2.2c3.9,2.7,5.3,3.7,9.2,6.4l0.1,5.9c6.4,1.9,6,1.7,12.4,3.6l3-5c4.7-0.2,6.4-0.3,11.1-0.5l3.4,4.7c6.3-2.4,5.8-2.2,12.1-4.6
		l-0.4-5.8c3.7-3,5-4.1,8.7-7.1l5.4,1.7c3.7-5.8,3.4-5.3,7.2-11.1l-3.6-4.5C104.7,62.7,105.1,61.1,106.4,56.4z M64.7,83.9
		C46.5,84.7,31.2,70,30.5,51.1c-0.7-18.9,13.5-34.7,31.6-35.5c18.2-0.7,33.5,13.9,34.2,32.8C97.1,67.3,82.9,83.2,64.7,83.9z"/>
	<path class="st1" d="M50.8,119.2c-0.7-2.6-1-3.5-1.7-6.2l2-2.5c-2.1-3.2-1.9-3-4-6.2l-3,1c-2.1-1.7-2.8-2.3-4.8-4l0.2-3.3
		c-3.5-1.3-3.2-1.2-6.7-2.6l-1.9,2.6c-2.6-0.1-3.5-0.1-6.2-0.3l-1.7-2.8c-3.6,1-3.3,1-6.9,2l0,3.3c-2.2,1.5-2.9,2-5.1,3.5l-2.9-1.2
		c-2.3,3-2.1,2.8-4.4,5.8l1.8,2.7c-0.9,2.6-1.2,3.4-2.1,6L0.3,118c-0.1,3.9-0.1,3.6-0.3,7.4l3,1c0.7,2.6,1,3.5,1.7,6.2l-2,2.5
		c2.1,3.2,1.9,3,4,6.2l3-1c2.1,1.7,2.8,2.3,4.8,4l-0.2,3.3c3.5,1.3,3.2,1.2,6.7,2.6l1.9-2.6c2.6,0.1,3.5,0.1,6.2,0.3l1.7,2.8
		c3.6-1,3.3-1,6.9-2l0-3.3c2.2-1.5,2.9-2,5.1-3.5l2.9,1.2c2.3-3,2.1-2.8,4.4-5.8l-1.8-2.7c0.9-2.6,1.2-3.4,2.1-6l3.1-0.8
		c0.1-3.9,0.1-3.6,0.3-7.4L50.8,119.2z M45.2,123.6c-0.4,10.5-8.9,18.7-19.1,18.2c-10.1-0.4-18-9.3-17.6-19.7
		c0.4-10.5,8.9-18.7,19.1-18.2C37.7,104.3,45.6,113.1,45.2,123.6z"/>
	<g>
		<path class="st1" d="M223.3,18L210.8-0.2c-15.1,4.9-13.9,4.5-29,9.4l0.6,22.1c-9,6.6-12.2,8.9-21.2,15.4l-20.8-7.4
			c-9.3,12.8-8.6,11.9-17.9,24.7l13.5,17.5c-3.5,10.6-4.7,14.3-8.1,25l-21.2,6.3c0,15.9,0,14.7,0,30.5l19.6,5.8v-8.6
			c0-7.8,6.3-14.1,14.1-14.1h15.5c0.9-43,35.4-77.8,78.4-79V18H223.3z"/>
		<path class="st1" d="M174.6,188.9h-34.4c-4.6,0-8.6-2.2-11.2-5.5l-6.7,8.7c9.3,12.8,8.6,11.9,17.9,24.7l20.8-7.4
			c9,6.6,12.2,8.9,21.2,15.4l-0.6,22.1c15.1,4.9,13.9,4.5,29,9.4l12.5-18.2h10.8v-29.3c-20.3-0.6-38.8-8.7-52.7-21.6
			C179.4,188.3,177,188.9,174.6,188.9z"/>
	</g>
	<path class="st0" d="M297.1,132.6c-0.9-0.3-1.8-0.5-2.7-0.5H260c-1,0-1.9,0.2-2.7,0.5L242,117.3c0.5-1.1,0.8-2.3,0.8-3.6V79.3
		c0-4.6-3.7-8.3-8.3-8.3h-34.3c-4.6,0-8.3,3.7-8.3,8.3v34.3c0,1.3,0.3,2.5,0.8,3.6l-15.4,15.4c-0.9-0.3-1.8-0.5-2.7-0.5h-34.3
		c-4.6,0-8.3,3.7-8.3,8.3v34.3c0,4.6,3.7,8.3,8.3,8.3h34.3c4.6,0,8.3-3.7,8.3-8.3v-34.3c0-1.1-0.2-2.2-0.7-3.2l15.6-15.6
		c0.7,0.2,1.5,0.3,2.3,0.3h34.3c0.8,0,1.6-0.1,2.3-0.3l15.6,15.6c-0.4,1-0.7,2.1-0.7,3.2v34.3c0,4.6,3.7,8.3,8.3,8.3h34.3
		c4.6,0,8.3-3.7,8.3-8.3v-34.3c0-1.1-0.2-2.2-0.7-3.2l15.6-15.6c0.7,0.2,1.5,0.3,2.3,0.3h34.3c4.6,0,8.3-3.7,8.3-8.3V79.3
		c0-4.6-3.7-8.3-8.3-8.3h-34.3c-4.6,0-8.3,3.7-8.3,8.3v34.3c0,1.3,0.3,2.5,0.8,3.6L297.1,132.6z"/>
	<path class="st1" d="M314.9,180.6h-5.1c-0.7,0-1.2,0.6-1.2,1.2v5.1c0,0.7,0.6,1.2,1.2,1.2h5.1c0.7,0,1.2-0.6,1.2-1.2v-5.1
		C316.1,181.1,315.6,180.6,314.9,180.6z"/>
	<path class="st1" d="M312.4,235h-7.7c-1,0-1.9,0.8-1.9,1.9v7.7c0,1,0.8,1.9,1.9,1.9h7.7c1,0,1.9-0.8,1.9-1.9v-7.7
		C314.2,235.8,313.4,235,312.4,235z"/>
	<path class="st1" d="M324.6,140.9v-6.1c0-0.8-0.7-1.5-1.5-1.5H317c-0.8,0-1.5,0.7-1.5,1.5v6.1c0,0.8,0.7,1.5,1.5,1.5h6.1
		C323.9,142.4,324.6,141.7,324.6,140.9z"/>
	<path class="st1" d="M356.1,130.5v10c0,1.3,1.1,2.4,2.4,2.4h10c1.3,0,2.4-1.1,2.4-2.4v-10c0-1.3-1.1-2.4-2.4-2.4h-10
		C357.1,128.1,356.1,129.1,356.1,130.5z"/>
	<path class="st1" d="M250.1,201.8v8c0,1.1,0.9,1.9,1.9,1.9h8c1.1,0,1.9-0.9,1.9-1.9v-8c0-1.1-0.9-1.9-1.9-1.9h-8
		C251,199.9,250.1,200.8,250.1,201.8z"/>
	<path class="st1" d="M353.4,148.9h-24c-3.2,0-5.8,2.6-5.8,5.8v24c0,3.2,2.6,5.8,5.8,5.8h24c3.2,0,5.8-2.6,5.8-5.8v-24
		C359.2,151.5,356.6,148.9,353.4,148.9z"/>
	<path class="st1" d="M305.3,195.9h-20c-2.7,0-4.9,2.2-4.9,4.9v20c0,2.7,2.2,4.9,4.9,4.9h20c2.7,0,4.9-2.2,4.9-4.9v-20
		C310.1,198,308,195.9,305.3,195.9z"/>
	<path class="st1" d="M381.3,98h-10.6c-1.4,0-2.6,1.2-2.6,2.6v10.6c0,1.4,1.2,2.6,2.6,2.6h10.6c1.4,0,2.6-1.2,2.6-2.6v-10.6
		C383.9,99.1,382.7,98,381.3,98z"/>
	<path class="st1" d="M374.3,66.7c0.9,0,1.7-0.8,1.7-1.7v-6.9c0-0.9-0.8-1.7-1.7-1.7h-6.9c-0.9,0-1.7,0.8-1.7,1.7V65
		c0,0.9,0.8,1.7,1.7,1.7H374.3z"/>
	<path class="st1" d="M341.7,195.8H331c-1.4,0-2.6,1.2-2.6,2.6v10.7c0,1.4,1.2,2.6,2.6,2.6h10.7c1.4,0,2.6-1.2,2.6-2.6v-10.7
		C344.3,197,343.2,195.8,341.7,195.8z"/>
	<path class="st1" d="M251.7,237.1h-13.9c-1.9,0-3.4,1.5-3.4,3.4v13.9c0,1.9,1.5,3.4,3.4,3.4h13.9c1.9,0,3.4-1.5,3.4-3.4v-13.9
		C255.1,238.6,253.6,237.1,251.7,237.1z"/>
	<path class="st1" d="M254.8,38.2h5.4c0.7,0,1.3-0.6,1.3-1.3v-5.4c0-0.7-0.6-1.3-1.3-1.3h-5.4c-0.7,0-1.3,0.6-1.3,1.3v5.4
		C253.5,37.6,254.1,38.2,254.8,38.2z"/>
	<path class="st1" d="M324.9,61.6h13.6c1.8,0,3.3-1.5,3.3-3.3V44.6c0-1.8-1.5-3.3-3.3-3.3h-13.6c-1.8,0-3.3,1.5-3.3,3.3v13.6
		C321.6,60.1,323.1,61.6,324.9,61.6z"/>
	<path class="st1" d="M255.2,67.1v10c0,1.3,1.1,2.4,2.4,2.4h10c1.3,0,2.4-1.1,2.4-2.4v-10c0-1.3-1.1-2.4-2.4-2.4h-10
		C256.3,64.7,255.2,65.8,255.2,67.1z"/>
	<path class="st1" d="M276.5,53.5h26.8c3.6,0,6.5-2.9,6.5-6.5V20.2c0-3.6-2.9-6.5-6.5-6.5h-26.8c-3.6,0-6.5,2.9-6.5,6.5V47
		C270,50.6,272.9,53.5,276.5,53.5z"/>
	<path class="st1" d="M267,95.9v19.9c0,2.7,2.2,4.8,4.8,4.8h19.9c2.7,0,4.8-2.2,4.8-4.8V95.9c0-2.7-2.2-4.8-4.8-4.8h-19.9
		C269.2,91.1,267,93.2,267,95.9z"/>
	<path class="st1" d="M293,77.7c0.7,0,1.2-0.5,1.2-1.2v-5c0-0.7-0.5-1.2-1.2-1.2h-5c-0.7,0-1.2,0.5-1.2,1.2v5c0,0.7,0.5,1.2,1.2,1.2
		H293z"/>
</g>
</svg>
